#!OML:ASF H:\Male1\Project 1\Capture day 1\Session 1\Male1.ASF
:FULLY-SPECIFIED
:DEGREES
189
root 8.95185 19.4223 1.63433 183.293 11.587 -177.934
lowerback 12.3725 1.02867 2.8583
upperback 4.04636 2.07758 -0.857638
thorax -2.56309 1.21248 -2.80814
lowerneck -5.17785 7.12619 10.6577
upperneck -9.29935 9.17533 -11.6375
head -0.849807 4.7649 -5.09927
rclavicle 3.77691e-015 -6.16232e-015
rhumerus -57.6523 39.7662 -94.612
rradius 78.2957
rwrist -20.9728
rhand -21.2852 -3.69429
rfingers 7.12502
rthumb 5.09895 -33.6129
lclavicle 3.77691e-015 -6.16232e-015
lhumerus -46.3034 -10.6399 76.7808
lradius 93.9986
lwrist 27.9325
lhand -32.1382 17.2649
lfingers 7.12502
lthumb -5.38219 47.1766
rfemur -9.66311 14.2408 20.5635
rtibia 21.7168
rfoot -0.538295 -30.8306
rtoes -9.36359
lfemur -6.39723 -11.1666 -17.4571
ltibia 23.2544
lfoot 2.53355 25.2883
ltoes 2.10404
190
root 8.9747 19.0035 1.67452 183.397 11.5093 -177.764
lowerback 12.5305 1.01001 3.13477
upperback 4.14653 2.10748 -0.819709
thorax -2.5339 1.23661 -2.93227
lowerneck -5.0353 7.11983 10.444
upperneck -9.58524 9.19512 -11.5757
head -0.967835 4.79358 -5.06116
rclavicle -1.91827e-014 6.75868e-015
rhumerus -59.5689 38.631 -94.9474
rradius 80.0848
rwrist -21.629
rhand -21.7656 -3.6628
rfingers 7.12502
rthumb 4.63507 -33.5921
lclavicle -1.91827e-014 6.75868e-015
lhumerus -46.6022 -10.4803 76.9141
lradius 94.0898
lwrist 27.2946
lhand -32.0837 16.814
lfingers 7.12502
lthumb -5.32952 46.727
rfemur -9.36595 14.4755 20.7623
rtibia 21.2564
rfoot 0.690843 -31.3789
rtoes -7.74147
lfemur -7.26313 -10.9775 -17.2075
ltibia 24.1777
lfoot 2.96467 25.084
ltoes 3.74792
191
root 9.00057 18.5396 1.721 183.509 11.4327 -177.104
lowerback 12.7977 0.964695 3.78379
upperback 4.24217 2.16145 -0.625651
thorax -2.55868 1.27337 -3.11112
lowerneck -4.80262 7.13213 10.2387
upperneck -9.86062 9.24326 -11.4571
head -1.09738 4.83423 -5.00966
rclavicle -4.16454e-014 -2.78299e-015
rhumerus -61.2336 37.4775 -95.1188
rradius 81.7863
rwrist -22.2268
rhand -22.2955 -3.60325
rfingers 7.12502
rthumb 4.12345 -33.5431
lclavicle -4.16454e-014 -2.78299e-015
lhumerus -46.7882 -10.1218 77.1234
lradius 94.1452
lwrist 26.7639
lhand -32.0212 16.4631
lfingers 7.12502
lthumb -5.26918 46.3776
rfemur -8.82725 14.2903 21.6163
rtibia 20.7521
rfoot 2.66317 -31.7804
rtoes -6.91949
lfemur -8.34949 -10.447 -16.4146
ltibia 25.8028
lfoot 3.7261 24.3485
ltoes 4.96068
192
root 9.02803 18.0425 1.77757 183.624 11.4017 -175.943
lowerback 13.2206 0.905357 4.82283
upperback 4.32462 2.27135 -0.285346
thorax -2.666 1.33914 -3.37119
lowerneck -4.43402 7.14318 10.1402
upperneck -10.1879 9.28946 -11.3844
head -1.25663 4.87345 -4.99658
rclavicle -2.03754e-015 -8.15017e-015
rhumerus -62.6087 36.3587 -95.1753
rradius 83.3137
rwrist -22.8137
rhand -22.9376 -3.55521
rfingers 7.12502
rthumb 3.50335 -33.5062
lclavicle -2.03754e-015 -8.15017e-015
lhumerus -46.8427 -9.63881 77.3924
lradius 94.1373
lwrist 26.3827
lhand -31.9827 16.2464
lfingers 7.12502
lthumb -5.23204 46.1618
rfemur -8.05918 13.4251 23.1617
rtibia 20.3936
rfoot 4.50038 -31.1922
rtoes -8.6535
lfemur -9.56373 -9.28481 -15.0752
ltibia 28.1479
lfoot 4.24598 22.3987
ltoes 3.05071
193
root 9.05689 17.5249 1.84554 183.661 11.4139 -174.383
lowerback 13.8863 0.827722 6.13493
upperback 4.39492 2.44236 0.18012
thorax -2.90157 1.43656 -3.67269
lowerneck -3.86959 7.13629 10.1994
upperneck -10.6041 9.31173 -11.4104
head -1.46283 4.90129 -5.05069
rclavicle 3.70236e-014 1.98785e-015
rhumerus -63.7077 35.3459 -95.1904
rradius 84.581
rwrist -23.4446
rhand -23.7376 -3.55781
rfingers 7.12502
rthumb 2.73081 -33.5201
lclavicle 3.70236e-014 1.98785e-015
lhumerus -46.7705 -9.1059 77.7375
lradius 94.0233
lwrist 26.1731
lhand -32.021 16.2835
lfingers 7.12502
lthumb -5.26904 46.198
rfemur -7.1437 11.8759 25.2722
rtibia 20.4968
rfoot 5.76682 -28.9421
rtoes -14.202
lfemur -10.7204 -7.38927 -13.3028
ltibia 31.1432
lfoot 3.4823 19.2274
ltoes -1.22964
194
root 9.08525 16.9962 1.91798 183.454 11.3805 -173.263
lowerback 14.7014 0.747391 6.97847
upperback 4.48407 2.58247 0.547656
thorax -3.21305 1.51803 -3.81457
lowerneck -3.08672 7.10699 10.4928
upperneck -11.1662 9.30303 -11.6504
head -1.72674 4.91783 -5.22276
rclavicle -2.10712e-014 5.56597e-015
rhumerus -64.4845 34.4925 -95.2129
rradius 85.4503
rwrist -24.1382
rhand -24.7086 -3.59227
rfingers 7.12502
rthumb 1.79301 -33.5645
lclavicle -2.10712e-014 5.56597e-015
lhumerus -46.5435 -8.58303 78.1837
lradius 93.7356
lwrist 26.1138
lhand -32.1438 16.704
lfingers 7.12502
lthumb -5.3876 46.6155
rfemur -6.46778 9.81397 26.9262
rtibia 21.6492
rfoot 4.3249 -25.3772
rtoes -20.9032
lfemur -11.6801 -5.17945 -12.0052
ltibia 34.4831
lfoot 0.13899 15.5763
ltoes -5.22594
195
root 9.11093 16.4722 1.99 183.194 11.2675 -172.735
lowerback 15.4092 0.695129 7.26625
upperback 4.56416 2.66671 0.766679
thorax -3.49865 1.56767 -3.78785
lowerneck -2.24412 7.0594 10.8893
upperneck -11.7731 9.27409 -11.9453
head -2.00838 4.92421 -5.43459
rclavicle -3.39425e-014 -1.19271e-014
rhumerus -64.868 33.8276 -95.2719
rradius 85.7962
rwrist -24.8902
rhand -25.8588 -3.70548
rfingers 7.12502
rthumb 0.682163 -33.6841
lclavicle -3.39425e-014 -1.19271e-014
lhumerus -46.0873 -8.10191 78.7534
lradius 93.1801
lwrist 26.1323
lhand -32.3339 17.5662
lfingers 7.12502
lthumb -5.57114 47.473
rfemur -6.57392 7.3551 27.8768
rtibia 24.2522
rfoot -0.518588 -21.4277
rtoes -27.1207
lfemur -12.5953 -2.97062 -11.3485
ltibia 37.935
lfoot -5.92795 12.2471
ltoes -8.19074
